# xmcd CD database file
#
# Track frame offsets:
#	150
#	12900
#	25917
#	41993
#	56154
#	69269
#	87186
#	103963
#	114211
#	131534
#	145531
#	161356
#
# Disc length: 2355 seconds
#
# Revision: 0
# Processed by: cddbd v1.5.1PL0 Copyright (c) Steve Scherf et al.
# Submitted via: CDex 1.51
#
DISCID=9909310c
DTITLE=drytones - secret
DYEAR=1998
DGENRE=Blues
TTITLE0=Rockin' and Rollin'
TTITLE1=Hey Hey
TTITLE2=Walkin' Blues
TTITLE3=Before you accuse me
TTITLE4=Dimple
TTITLE5=Secret
TTITLE6=Malted Milk
TTITLE7=San Francisco Bay Blues
TTITLE8=Little red rooster
TTITLE9=Druthers
TTITLE10=Bet on the blues
TTITLE11=Song of Wyoming
EXTD=YEAR: 1998
EXTT0=
EXTT1=
EXTT2=
EXTT3=
EXTT4=
EXTT5=
EXTT6=
EXTT7=
EXTT8=
EXTT9=
EXTT10=
EXTT11=
PLAYORDER=
